@startuml StateDiagram
!define RECTANGLE state

skinparam monochrome true
skinparam shadowing false
skinparam stateFontSize 12
skinparam stateFontName Arial

[*] --> Инициализация
Инициализация: Создание компонентов UI
Инициализация --> Ожидание : InitializeWaveGenerator()
Ожидание: Ожидание событий UI
Ожидание --> Обновление : Slider_ValueChanged() \nили ComboBox_SelectionChanged()
Обновление: Выполнение Update()
Обновление --> Ожидание : Завершение цикла
Обновление : entry / _isUpdating = true
Обновление : do / Обновить параметры волн
Обновление : exit / _isUpdating = false

@enduml